<?xml version="1.0" encoding="UTF-8"?>
<svg width="800px" height="600px" viewBox="0 0 800 600" version="1.1" xmlns="http://www.w3.org/2000/svg">
    <g stroke="none" stroke-width="1" fill="none" fill-rule="evenodd">
        <rect fill="#FFFFFF" x="0" y="0" width="800" height="600"/>
        <g transform="translate(100, 100)">
            <path d="M400,200 C400,89.543 311.457,0 200,0 C88.543,0 0,89.543 0,200 C0,311.457 88.543,400 200,400 C311.457,400 400,311.457 400,200 Z" fill="#E3F2FD"/>
            <path d="M200,100 C144.771,100 100,144.771 100,200 C100,255.229 144.771,300 200,300 C255.229,300 300,255.229 300,200 C300,144.771 255.229,100 200,100 Z" fill="#2196F3"/>
            <path d="M200,150 C172.386,150 150,172.386 150,200 C150,227.614 172.386,250 200,250 C227.614,250 250,227.614 250,200 C250,172.386 227.614,150 200,150 Z" fill="#FFFFFF"/>
            <path d="M200,180 C188.954,180 180,188.954 180,200 C180,211.046 188.954,220 200,220 C211.046,220 220,211.046 220,200 C220,188.954 211.046,180 200,180 Z" fill="#2196F3"/>
        </g>
        <g transform="translate(500, 200)">
            <path d="M200,0 L400,100 L200,200 L0,100 Z" fill="#E3F2FD"/>
            <path d="M200,50 L350,125 L200,200 L50,125 Z" fill="#2196F3"/>
            <path d="M200,100 L300,150 L200,200 L100,150 Z" fill="#FFFFFF"/>
        </g>
    </g>
</svg> 