<?xml version="1.0" encoding="UTF-8"?>
<svg width="400" height="300" viewBox="0 0 400 300" fill="none" xmlns="http://www.w3.org/2000/svg">
  <!-- Background -->
  <rect width="400" height="300" fill="none"/>
  
  <!-- Main Illustration -->
  <g transform="translate(50, 50)">
    <!-- Person -->
    <circle cx="100" cy="80" r="30" fill="#E3F2FD" stroke="#2196F3" stroke-width="2"/>
    <path d="M70 150C70 120 130 120 130 150" fill="#E3F2FD" stroke="#2196F3" stroke-width="2"/>
    
    <!-- Document -->
    <rect x="180" y="50" width="120" height="160" rx="8" fill="white" stroke="#2196F3" stroke-width="2"/>
    <rect x="200" y="70" width="80" height="8" rx="4" fill="#2196F3"/>
    <rect x="200" y="90" width="60" height="8" rx="4" fill="#90CAF9"/>
    <rect x="200" y="110" width="80" height="8" rx="4" fill="#90CAF9"/>
    <rect x="200" y="130" width="60" height="8" rx="4" fill="#90CAF9"/>
    <rect x="200" y="150" width="80" height="8" rx="4" fill="#90CAF9"/>
    <rect x="200" y="170" width="60" height="8" rx="4" fill="#90CAF9"/>
    
    <!-- Arrow -->
    <path d="M130 100L170 100" stroke="#2196F3" stroke-width="4" stroke-linecap="round"/>
    <path d="M160 90L170 100L160 110" stroke="#2196F3" stroke-width="4" stroke-linecap="round" stroke-linejoin="round"/>
  </g>
</svg> 